<svg id="Layer_1" data-name="Layer 1" xmlns="http://www.w3.org/2000/svg" width="64" height="64" viewBox="0 0 64 64"><defs><style>.cls-1{fill:#666;}</style></defs><title>euro</title><path class="cls-1" d="M31,60A27,27,0,1,0,4,33,27,27,0,0,0,31,60ZM31,8A25,25,0,1,1,6,33,25,25,0,0,1,31,8Z"/><path class="cls-1" d="M14,35a1,1,0,0,0,1,1h1.49C18.16,42.89,24,48,31,48a14.42,14.42,0,0,0,10.22-4.29,1,1,0,0,0-1.41-1.41A12.48,12.48,0,0,1,31,46,13.17,13.17,0,0,1,18.55,36H31a1,1,0,0,0,0-2H18.15a13.41,13.41,0,0,1,0-4H31a1,1,0,0,0,0-2H18.55A13.18,13.18,0,0,1,31,18a12.49,12.49,0,0,1,8.82,3.71,1,1,0,0,0,1.41-1.41A14.43,14.43,0,0,0,31,16c-7,0-12.83,5.11-14.51,12H15a1,1,0,0,0,0,2h1.13a15.45,15.45,0,0,0,0,4H15A1,1,0,0,0,14,35Z"/></svg>