<svg id="Layer_1" data-name="Layer 1" xmlns="http://www.w3.org/2000/svg" width="64" height="64" viewBox="0 0 64 64"><defs><style>.cls-1{fill:#666;}</style></defs><title>light</title><path class="cls-1" d="M38,52.8A1,1,0,0,0,36.8,52l-10,2a1,1,0,0,0,.2,2l0.2,0,10-2A1,1,0,0,0,38,52.8Z"/><path class="cls-1" d="M36.8,48l-10,2a1,1,0,0,0,.2,2l0.2,0,10-2A1,1,0,0,0,36.8,48Z"/><path class="cls-1" d="M27.8,57.82A1,1,0,0,0,27,59a1,1,0,0,0,1,.8l0.2,0,8-1.6a1,1,0,1,0-.4-2Z"/><path class="cls-1" d="M18.29,33.71a21.93,21.93,0,0,1,5.57,11.24A3.19,3.19,0,0,0,27,48H37a3.13,3.13,0,0,0,3.13-3c0.85-6.47,5.53-11.23,5.63-11.34A18,18,0,1,0,18.29,33.71ZM32,6A16,16,0,0,1,44.29,32.29,23.83,23.83,0,0,0,38.14,44.8,1.17,1.17,0,0,1,37,46H27a1.24,1.24,0,0,1-1.15-1.27,23.58,23.58,0,0,0-6.09-12.37A16,16,0,0,1,32,6Z"/></svg>