<svg id="Layer_1" data-name="Layer 1" xmlns="http://www.w3.org/2000/svg" width="64" height="64" viewBox="0 0 64 64"><defs><style>.cls-1{fill:#666;}</style></defs><title>tags</title><path class="cls-1" d="M41,22a5,5,0,1,0-5-5A5,5,0,0,0,41,22Zm0-8a3,3,0,1,1-3,3A3,3,0,0,1,41,14Z"/><path class="cls-1" d="M4,37a4,4,0,0,0,1.17,2.83l13,13a4,4,0,0,0,5.65,0l27-26A4,4,0,0,0,52,24V10a4,4,0,0,0-4-4H34a4,4,0,0,0-2.85,1.19L5.17,34.12A4,4,0,0,0,4,37Zm2.6-1.44L32.54,8.59A2,2,0,0,1,34,8H48a2,2,0,0,1,2,2V24a2,2,0,0,1-.57,1.41l-27,26a2.05,2.05,0,0,1-2.84,0l-13-13A2,2,0,0,1,6,37,2.06,2.06,0,0,1,6.6,35.52Z"/><path class="cls-1" d="M56,10H55a1,1,0,1,0,0,2h1a2,2,0,0,1,2,2V28a2.32,2.32,0,0,1-.57,1.52L30.54,55.41a2,2,0,0,1-2.79,0l-1-1.12a1,1,0,1,0-1.49,1.33l1,1.16A4,4,0,0,0,29.13,58h0a4,4,0,0,0,2.81-1.16L58.83,30.94A4.25,4.25,0,0,0,60,28V14A4,4,0,0,0,56,10Z"/></svg>