<svg id="Layer_1" data-name="Layer 1" xmlns="http://www.w3.org/2000/svg" width="64" height="64" viewBox="0 0 64 64"><defs><style>.cls-1{fill:#666;}</style></defs><title>calendar_2-01-01</title><path class="cls-1" d="M33.38,30.08a1,1,0,0,0-1.09.22l-2,2a1,1,0,0,0,1.3,1.52l0.11-.11,0.3-.3V45a1,1,0,0,0,2,0V31A1,1,0,0,0,33.38,30.08Z"/><path class="cls-1" d="M52,8H12a4,4,0,0,0-4,4V52a4,4,0,0,0,4,4H52a4,4,0,0,0,4-4V12A4,4,0,0,0,52,8Zm2,34V52a2,2,0,0,1-2,2H12a2,2,0,0,1-2-2V22H54V42Zm0-22H10V12a2,2,0,0,1,2-2H52a2,2,0,0,1,2,2v8Z"/><path class="cls-1" d="M21,18a3,3,0,1,0-3-3A3,3,0,0,0,21,18Zm0-4a1,1,0,1,1-1,1A1,1,0,0,1,21,14Z"/><path class="cls-1" d="M43,18a3,3,0,1,0-3-3A3,3,0,0,0,43,18Zm0-4a1,1,0,1,1-1,1A1,1,0,0,1,43,14Z"/></svg>