<svg id="Layer_1" data-name="Layer 1" xmlns="http://www.w3.org/2000/svg" width="64" height="64" viewBox="0 0 64 64"><defs><style>.cls-1{fill:#666;}</style></defs><title>tag</title><path class="cls-1" d="M47,22a5,5,0,1,0-5-5A5,5,0,0,0,47,22Zm0-8a3,3,0,1,1-3,3A3,3,0,0,1,47,14Z"/><path class="cls-1" d="M6,38a4,4,0,0,0,1.17,2.83l16,16a4,4,0,0,0,5.65,0l28-27A4,4,0,0,0,58,27V10a4,4,0,0,0-4-4H37a4,4,0,0,0-2.84,1.18l-27,28A4,4,0,0,0,6,38Zm2.6-1.43,27-28A2,2,0,0,1,37,8H54a2,2,0,0,1,2,2V27a2,2,0,0,1-.57,1.4l-28,27a2.06,2.06,0,0,1-2.83,0l-16-16A2,2,0,0,1,8.6,36.57Z"/></svg>