<svg id="Layer_1" data-name="Layer 1" xmlns="http://www.w3.org/2000/svg" width="64" height="64" viewBox="0 0 64 64"><defs><style>.cls-1{fill:#666;}</style></defs><title>user_settings_2</title><path id="user_settings_2" class="cls-1" d="M48,52a6,6,0,1,1,6-6A6,6,0,0,1,48,52Zm0-10a4,4,0,1,0,4,4A4,4,0,0,0,48,42Zm1,18H47a2,2,0,0,1-2-2V56.58a10.75,10.75,0,0,1-2.4-1l-0.83.83a2,2,0,0,1-2.8,0L37.58,55a2,2,0,0,1,0-2.8l0.83-.83a11.15,11.15,0,0,1-1-2.4H36a2,2,0,0,1-2-2V45a2,2,0,0,1,2-2h1.42a10.71,10.71,0,0,1,1-2.4l-0.83-.83a2,2,0,0,1,0-2.8L39,35.58a2,2,0,0,1,2.8,0l0.83,0.83a10.75,10.75,0,0,1,2.4-1V34a2,2,0,0,1,2-2h2a2,2,0,0,1,2,2v1.41a10.67,10.67,0,0,1,2.4,1l0.83-.83a2,2,0,0,1,2.8,0L58.42,37a2,2,0,0,1,0,2.8l-0.84.83a11.19,11.19,0,0,1,1,2.4H60a2,2,0,0,1,2,2v2a2,2,0,0,1-2,2H58.58a10.64,10.64,0,0,1-1,2.4l0.83,0.83a2,2,0,0,1,0,2.8L57,56.42a2,2,0,0,1-2.8,0l-0.84-.83a11.19,11.19,0,0,1-2.4,1V58A2,2,0,0,1,49,60Zm-6.55-6.68a1,1,0,0,1,.56.17,8.9,8.9,0,0,0,3.19,1.33,1,1,0,0,1,.8,1V58h2V55.79a1,1,0,0,1,.8-1A9.05,9.05,0,0,0,53,53.49a1,1,0,0,1,1.26.12L55.64,55,57,53.62l-1.39-1.36A1,1,0,0,1,55.49,51a8.88,8.88,0,0,0,1.32-3.19,1,1,0,0,1,1-.8H60V45H57.8a1,1,0,0,1-1-.8A9.06,9.06,0,0,0,55.49,41a1,1,0,0,1,.13-1.26L57,38.35,55.62,37l-1.36,1.39a1,1,0,0,1-1.26.13,9,9,0,0,0-3.19-1.33,1,1,0,0,1-.8-1V34H47v2.2a1,1,0,0,1-.8,1A8.89,8.89,0,0,0,43,38.51a1,1,0,0,1-1.26-.12L40.36,37,39,38.38l1.39,1.36A1,1,0,0,1,40.51,41a8.9,8.9,0,0,0-1.33,3.19,1,1,0,0,1-1,.8H36v2h2.2a1,1,0,0,1,1,.8A9.06,9.06,0,0,0,40.51,51a1,1,0,0,1-.12,1.26L39,53.64,40.38,55l1.37-1.39A1,1,0,0,1,42.45,53.32ZM41.6,29.23a23,23,0,0,0-9.31-4.59,11,11,0,1,0-10.6,0A23,23,0,0,0,4,47a1,1,0,0,0,2,0A21,21,0,0,1,40.33,30.77,1,1,0,0,0,41.6,29.23ZM18,15a9,9,0,1,1,9,9A9,9,0,0,1,18,15Z"/></svg>